<svg width="512" height="512" viewBox="0 0 512 512" fill="none" xmlns="http://www.w3.org/2000/svg">
<g filter="url(#filter0_d)">
<circle cx="256" cy="256" r="206" fill="white"/>
</g>
<path fill-rule="evenodd" clip-rule="evenodd" d="M252.651 363.946C252.651 355.395 245.638 348.599 237.169 347.19C193.017 339.846 159.366 301.622 159.366 255.57C159.366 204.266 201.131 162.676 252.651 162.676C298.896 162.676 337.282 196.186 344.657 240.153C346.072 248.586 352.897 255.57 361.483 255.57C370.07 255.57 377.133 248.604 376.072 240.118C368.435 179.005 316.09 131.712 252.651 131.712C183.957 131.712 128.271 187.164 128.271 255.57C128.271 318.743 175.764 370.869 237.134 378.474C245.655 379.53 252.651 372.496 252.651 363.946ZM252.651 302.017C252.651 293.466 245.273 286.855 237.741 282.75C228.096 277.492 221.556 267.292 221.556 255.57C221.556 238.468 235.477 224.605 252.651 224.605C264.423 224.605 274.666 231.118 279.945 240.723C284.068 248.223 290.707 255.57 299.293 255.57C307.88 255.57 315.04 248.531 312.922 240.244C306.073 213.455 281.685 193.641 252.651 193.641C218.305 193.641 190.461 221.368 190.461 255.57C190.461 284.482 210.359 308.768 237.261 315.588C245.582 317.698 252.651 310.567 252.651 302.017ZM269.343 365.387C268.726 372.951 274.725 379.428 282.345 379.428C289.211 379.428 294.901 374.129 295.361 367.308L297.837 330.621C298.232 325.213 298.236 319.209 297.847 312.609C297.841 312.513 297.918 312.432 298.015 312.432C298.087 312.432 298.151 312.478 298.174 312.547L304.123 330.621L311.582 351.466C313.841 357.78 319.845 361.997 326.576 361.997C333.308 361.997 339.312 357.78 341.571 351.466L349.029 330.621C350.618 326.097 352.601 320.073 354.98 312.549C355.002 312.48 355.067 312.432 355.14 312.432C355.236 312.432 355.312 312.512 355.307 312.608L355.167 315.16C355.067 316.979 355.017 319.404 355.017 322.436C355.017 325.467 355.117 328.196 355.316 330.621L357.796 367.368C358.254 374.156 363.916 379.428 370.747 379.428C378.323 379.428 384.289 372.994 383.687 365.474L377.396 286.943C376.677 277.969 369.154 271.052 360.114 271.052C352.683 271.052 346.078 275.769 343.694 282.778L332.115 316.828C330.529 321.445 328.746 327.358 326.766 334.567C326.743 334.653 326.664 334.714 326.574 334.714C326.487 334.714 326.409 334.656 326.384 334.573L321.038 316.828L309.461 282.787C307.076 275.773 300.466 271.052 293.029 271.052C283.991 271.052 276.467 277.961 275.736 286.932L269.343 365.387Z" fill="url(#paint0_linear)"/>
<defs>
<filter id="filter0_d" x="15" y="19" width="482" height="482" filterUnits="userSpaceOnUse" color-interpolation-filters="sRGB">
<feFlood flood-opacity="0" result="BackgroundImageFix"/>
<feColorMatrix in="SourceAlpha" type="matrix" values="0 0 0 0 0 0 0 0 0 0 0 0 0 0 0 0 0 0 127 0"/>
<feOffset dy="4"/>
<feGaussianBlur stdDeviation="17.5"/>
<feColorMatrix type="matrix" values="0 0 0 0 0 0 0 0 0 0 0 0 0 0 0 0 0 0 0.17 0"/>
<feBlend mode="normal" in2="BackgroundImageFix" result="effect1_dropShadow"/>
<feBlend mode="normal" in="SourceGraphic" in2="effect1_dropShadow" result="shape"/>
</filter>
<linearGradient id="paint0_linear" x1="128.271" y1="379.428" x2="383.76" y2="130.639" gradientUnits="userSpaceOnUse">
<stop offset="0.0526288" stop-color="#3F51B5"/>
<stop offset="0.663683" stop-color="#47A1CF"/>
</linearGradient>
</defs>
</svg>
